:SAMPLES-PER-SECOND 30
:FULLY-SPECIFIED
:DEGREES
228
root  66.9149 38.1714 -3.1961 -26.5495 -78.895 23.162
RightUpLeg  -19.9783 -17.1038 -8.53981
RightLeg  15.998 -0.573624 -0.305589
RightFoot  -5.22069 -0.592773 10.3819
RightToes  -9.31324e-010 0 -3.6325e-017
Spine  10.8665 1.22805 4.56277
Spine1  6.90074 4.61803 -12.07
HEad  2.89306 43.7522 -14.5733
LeftShoulder1  -0.660579 5.14547 -34.0732
LeftArm  25.4041 -14.4935 -53.4724
LeftForeArm  16.6884 -24.2162 -4.29729
LeftHand  -0.0338779 5.76278 -0.189951
RightShoulder  -0.535173 -5.01485 28.601
RightArm  12.166 -5.24619 47.0049
RightForeArm  20.1307 9.84141 6.03863
RightHand  0.283802 2.16748 4.13632
LeftUpLeg  -2.47545 -0.394601 -6.35316
LeftLeg  21.6356 0.708466 0.677498
LeftFoot  -14.9869 0.241304 4.71248
LeftToes  8.61288e-010 -5.99147e-011 2.1039e-011
229
root  67.9403 38.3966 -3.22564 -24.1954 -78.9112 21.2183
RightUpLeg  -19.1376 -15.1724 -9.1453
RightLeg  23.2288 -2.2216 -1.27218
RightFoot  -6.02951 -0.474986 9.34498
RightToes  -9.31324e-010 0 -3.6325e-017
Spine  11.8157 1.18037 4.79193
Spine1  4.42794 4.39082 -12.4809
HEad  3.77088 43.2419 -13.6823
LeftShoulder1  -0.666369 5.17026 -33.8204
LeftArm  22.2941 -9.3005 -50.1154
LeftForeArm  16.2091 -20.7524 -5.27265
LeftHand  -0.0242428 6.11882 1.0809
RightShoulder  -0.555989 -5.07652 28.5574
RightArm  16.792 -3.69934 47.2768
RightForeArm  18.7418 12.5724 6.49497
RightHand  -0.0451435 2.99125 -0.905424
LeftUpLeg  -3.81702 -0.096423 -6.18453
LeftLeg  19.7868 0.319748 0.635299
LeftFoot  -12.7242 0.132209 4.57587
LeftToes  8.61288e-010 -5.99147e-011 2.1039e-011
230
root  68.9012 38.5683 -3.27507 -23.1575 -79.3961 20.2876
RightUpLeg  -17.2971 -12.6366 -9.54158
RightLeg  29.5758 -2.23471 -1.58956
RightFoot  -6.87969 -0.386332 8.67744
RightToes  -9.31324e-010 0 -3.6325e-017
Spine  11.2479 1.50975 4.67531
Spine1  4.75222 4.58686 -12.1548
HEad  3.65794 41.724 -12.553
LeftShoulder1  -0.736445 5.33978 -33.9455
LeftArm  11.0441 -6.63266 -46.6622
LeftForeArm  25.0277 -13.9758 -8.85862
LeftHand  -0.0308231 7.07259 0.810973
RightShoulder  -0.557225 -5.09683 28.1926
RightArm  20.1175 -1.89213 48.0329
RightForeArm  15.4187 16.0629 5.70979
RightHand  -0.188682 2.38321 -3.01608
LeftUpLeg  -4.65845 1.22357 -5.85038
LeftLeg  17.9561 -0.50408 0.423179
LeftFoot  -10.9677 0.0519705 4.25742
LeftToes  8.61288e-010 -5.99147e-011 2.1039e-011
231
root  69.824 38.6309 -3.36504 -23.7868 -79.4046 21.1707
RightUpLeg  -15.2861 -11.2095 -9.94127
RightLeg  35.423 -1.22418 -1.1784
RightFoot  -7.70895 -0.296589 7.72523
RightToes  -9.31324e-010 0 -3.6325e-017
Spine  10.3943 1.56094 4.00541
Spine1  5.6709 4.55045 -12.0761
HEad  2.53197 40.1496 -11.992
LeftShoulder1  -0.920513 5.81102 -33.7077
LeftArm  0.338779 -4.04502 -43.051
LeftForeArm  33.4196 -7.88542 -10.0313
LeftHand  -0.0906951 9.2163 -1.21932
RightShoulder  -0.57293 -5.15307 27.9565
RightArm  21.4167 -0.0550308 49.0234
RightForeArm  11.3729 19.4279 4.75902
RightHand  -0.151159 2.14364 -2.66969
LeftUpLeg  -5.80481 1.98531 -5.99486
LeftLeg  16.6689 -1.07158 0.156204
LeftFoot  -9.9215 0.0132188 3.68451
LeftToes  8.61288e-010 -5.99147e-011 2.1039e-011
232
root  70.6839 38.6016 -3.46685 -27.5597 -79.8667 25.1216
RightUpLeg  -12.8192 -10.2083 -10.2219
RightLeg  40.4833 0.0372502 -0.243257
RightFoot  -8.76399 -0.242309 8.08944
RightToes  -9.31324e-010 0 -3.6325e-017
Spine  9.90376 2.15734 3.2076
Spine1  5.4774 4.99447 -12.1274
HEad  2.51514 38.0281 -11.0777
LeftShoulder1  -0.810087 5.55004 -33.4401
LeftArm  -4.06931 -0.34177 -39.2173
LeftForeArm  37.4024 -3.77863 -9.18113
LeftHand  -0.151822 9.94326 -2.34345
RightShoulder  -0.645485 -5.34103 28.427
RightArm  20.7433 1.06628 49.0059
RightForeArm  8.19938 22.2121 4.49689
RightHand  -0.0749304 4.72011 -1.11581
LeftUpLeg  -7.01451 2.50393 -6.2059
LeftLeg  16.2112 -1.04011 -0.162257
LeftFoot  -10.3204 0.0434848 2.03317
LeftToes  8.61288e-010 -5.99147e-011 2.1039e-011
233
root  71.5038 38.5533 -3.54055 -36.2987 -81.05 33.6829
RightUpLeg  -9.57292 -8.99925 -10.5623
RightLeg  43.9668 1.01204 0.745819
RightFoot  -9.54303 -0.190311 7.98282
RightToes  -9.31324e-010 0 -3.6325e-017
Spine  9.49667 2.95309 2.93079
Spine1  5.95068 5.89421 -12.6652
HEad  1.8387 34.8519 -11.2885
LeftShoulder1  -0.651921 5.13146 -33.8761
LeftArm  -4.90998 3.74595 -34.3402
LeftForeArm  37.1256 -2.21908 -8.31484
LeftHand  -0.179119 9.36731 -3.64026
RightShoulder  -0.640781 -5.3438 28.1127
RightArm  19.1651 2.19313 50.161
RightForeArm  8.2781 24.8304 4.86233
RightHand  -0.190819 4.24379 -2.56811
LeftUpLeg  -7.56934 3.19673 -6.52166
LeftLeg  15.4199 0.243409 -0.387552
LeftFoot  -10.6134 0.0607447 0.525976
LeftToes  8.61288e-010 -5.99147e-011 2.1039e-011
234
root  72.3685 38.4967 -3.61262 -41.8108 -81.3356 39.3719
RightUpLeg  -5.9149 -9.61454 -10.7487
RightLeg  44.9058 2.23229 2.07072
RightFoot  -9.462 -0.198093 7.96445
RightToes  -9.31324e-010 0 -3.6325e-017
Spine  9.22283 3.13984 3.50394
Spine1  5.82793 6.37706 -13.8987
HEad  2.73467 28.6361 -8.74894
LeftShoulder1  -0.650716 5.13421 -33.7491
LeftArm  -4.87814 7.77367 -29.937
LeftForeArm  38.0238 -2.58997 -8.07012
LeftHand  -0.171265 9.75131 -4.60842
RightShoulder  -0.626354 -5.29715 28.2022
RightArm  17.8567 2.68986 51.1024
RightForeArm  10.0091 27.7889 5.46177
RightHand  -0.262671 4.48193 -3.3809
LeftUpLeg  -8.91266 2.90419 -6.97306
LeftLeg  15.0577 1.29876 -0.338054
LeftFoot  -10.2485 0.0681135 -0.63815
LeftToes  8.61288e-010 -5.99147e-011 2.1039e-011
235
root  73.2283 38.4189 -3.66945 -47.0883 -81.3676 45.2154
RightUpLeg  -2.07751 -10.2726 -10.8565
RightLeg  42.8247 4.66543 4.30828
RightFoot  -9.09809 -0.227328 9.36564
RightToes  -9.31324e-010 0 -3.6325e-017
Spine  8.67332 3.33818 4.18331
Spine1  5.68292 6.88745 -15.075
HEad  3.51731 19.8757 -6.42414
LeftShoulder1  -0.689335 5.24289 -33.4755
LeftArm  -2.49656 11.7463 -26.1666
LeftForeArm  37.2435 -5.18644 -9.30839
LeftHand  -0.461025 17.978 -3.2292
RightShoulder  -0.623126 -5.28229 28.308
RightArm  17.562 2.77221 51.5891
RightForeArm  11.7371 31.0728 6.15531
RightHand  -0.31071 4.34759 -3.98245
LeftUpLeg  -10.8155 2.32224 -7.63419
LeftLeg  14.889 2.49471 -0.0845008
LeftFoot  -9.31014 0.0767642 -1.19826
LeftToes  8.61288e-010 -5.99147e-011 2.1039e-011
236
root  74.0842 38.3097 -3.74881 -56.4389 -81.6924 55.0196
RightUpLeg  2.29891 -9.09704 -10.5642
RightLeg  37.4089 6.63528 5.17575
RightFoot  -12.61 0.0560283 13.3972
RightToes  -9.31324e-010 0 -3.6325e-017
Spine  8.32266 3.91993 4.82419
Spine1  5.73703 7.78223 -16.0561
HEad  3.4306 11.9385 -4.95304
LeftShoulder1  -0.664135 5.20959 -32.773
LeftArm  -3.15239 15.5457 -23.5652
LeftForeArm  35.4653 -5.62103 -8.33359
LeftHand  -0.352035 12.6889 -4.25938
RightShoulder  -0.611884 -5.25823 28.1417
RightArm  18.029 2.51809 51.7517
RightForeArm  12.8363 34.5083 6.98138
RightHand  -0.356794 5.14651 -4.23882
LeftUpLeg  -12.6425 2.17921 -8.15411
LeftLeg  14.8186 4.02562 0.0452117
LeftFoot  -8.50307 0.0869342 -1.44075
LeftToes  8.61288e-010 -5.99147e-011 2.1039e-011
237
root  74.9423 38.2883 -3.77485 -62.1272 -81.4218 61.0652
RightUpLeg  6.73099 -8.4667 -10.3785
RightLeg  28.7852 6.73604 3.81626
RightFoot  -16.8521 0.415299 11.4141
RightToes  -9.31324e-010 0 -3.6325e-017
Spine  8.09722 4.13016 5.68549
Spine1  5.69279 8.23935 -16.3658
HEad  3.10375 4.54605 -4.08252
LeftShoulder1  -0.586969 5.04205 -32.0142
LeftArm  -2.23454 18.9083 -22.3436
LeftForeArm  30.9409 -6.78154 -8.39884
LeftHand  -0.183685 13.573 -1.47392
RightShoulder  -0.593759 -5.2125 27.9989
RightArm  19.4555 2.53092 51.4699
RightForeArm  13.2273 37.4439 7.77864
RightHand  -0.335178 4.71155 -4.1215
LeftUpLeg  -13.636 1.15087 -8.81648
LeftLeg  13.1749 5.78166 0.302997
LeftFoot  -6.55389 0.097846 -1.42472
LeftToes  8.61288e-010 -5.99147e-011 2.1039e-011
238
root  75.848 38.2786 -3.78104 -68.139 -81.3244 67.3323
RightUpLeg  9.30869 -7.68689 -10.0115
RightLeg  20.3841 4.88969 1.7793
RightFoot  -20.2696 0.351223 6.09866
RightToes  -9.31324e-010 0 -3.6325e-017
Spine  8.71599 4.09755 6.93947
Spine1  4.99299 8.43613 -16.5535
HEad  2.35523 -1.24532 -3.78502
LeftShoulder1  -0.599864 5.07748 -31.8821
LeftArm  -2.34121 21.6352 -21.6558
LeftForeArm  27.0637 -8.03863 -7.77866
LeftHand  -0.121733 11.103 -1.17121
RightShoulder  -0.590096 -5.20388 27.9316
RightArm  20.897 2.84525 51.2026
RightForeArm  15.1066 39.2519 8.20414
RightHand  -0.112744 5.217 -1.59399
LeftUpLeg  -14.4037 0.237178 -9.21279
LeftLeg  11.1351 7.37717 0.408878
LeftFoot  -4.41106 0.109773 -1.33914
LeftToes  8.61288e-010 -5.99147e-011 2.1039e-011
239
root  76.8926 38.2838 -3.77002 -72.5872 -81.7366 71.4872
RightUpLeg  9.68261 -7.52013 -9.12931
RightLeg  16.3997 2.72685 0.480456
RightFoot  -20.956 0.064451 2.445
RightToes  -9.31324e-010 0 -3.6325e-017
Spine  11.9458 3.51488 9.40463
Spine1  2.30802 8.12694 -17.6671
HEad  1.63759 -6.2359 -3.68115
LeftShoulder1  -0.829252 5.6366 -32.7267
LeftArm  -2.38005 23.0652 -21.0865
LeftForeArm  23.7006 -9.38418 -7.24131
LeftHand  -0.107439 9.50219 -1.63934
RightShoulder  -0.67517 -5.41918 28.5603
RightArm  23.1081 3.202 50.4322
RightForeArm  16.3648 39.9755 8.34763
RightHand  0.137582 6.7606 0.973756
LeftUpLeg  -14.856 -0.435933 -8.93133
LeftLeg  9.22114 8.67918 0.406718
LeftFoot  -2.64009 0.125512 -1.47326
LeftToes  8.61288e-010 -5.99147e-011 2.1039e-011
240
root  77.9223 38.2569 -3.72304 -71.143 -82.3286 70.229
RightUpLeg  8.40531 -7.95678 -8.09643
RightLeg  15.1183 2.16939 -0.0600434
RightFoot  -21.5017 -0.0830316 0.690137
RightToes  -9.31324e-010 0 -3.6325e-017
Spine  11.4671 3.23644 11.9133
Spine1  4.31265 8.30296 -17.5155
HEad  -0.0875032 -10.5742 -3.55928
LeftShoulder1  -0.717113 5.36328 -32.4006
LeftArm  -6.57469 23.2595 -25.0936
LeftForeArm  23.4802 -9.22149 -5.69867
LeftHand  -0.102757 7.60826 -2.83406
RightShoulder  -0.649881 -5.37017 28.1024
RightArm  23.8179 4.20295 50.6998
RightForeArm  17.0875 38.9147 7.97432
RightHand  0.279241 6.84704 2.33894
LeftUpLeg  -16.3472 -0.777111 -8.36635
LeftLeg  8.42713 8.5769 0.260938
LeftFoot  -1.71873 0.0471076 -0.41506
LeftToes  8.61288e-010 -5.99147e-011 2.1039e-011
